<?xml version="1.0" encoding="UTF-8"?>
<svg width="20px" height="20px" viewBox="0 0 20 20" version="1.1" xmlns="http://www.w3.org/2000/svg" xmlns:xlink="http://www.w3.org/1999/xlink">
    <!-- Generator: Sketch 57.1 (83088) - https://sketch.com -->
    <title>Path</title>
    <desc>Created with Sketch.</desc>
    <g id="Page-1" stroke="none" stroke-width="1" fill="none" fill-rule="evenodd">
        <g id="wi" fill="#333333">
            <polyline id="Path" points="3.58767753 1.4065884 3.58767753 1.4065884 4.198962 1.4809591 6.24142721 0.774442129 7.00363646 0.0542113313 7.56345436 0.547803261 7.13914944 1.25365923 7.53220502 1.68117329 8.58767979 2.04660682 9.22403074 2.34761988 9.51948454 3.08825016 12.7403996 3.98599271 13.6159636 4.51356416 14.509037 4.51711224 15.7967249 4.96128733 15.7349869 5.41323589 16.8433965 6.07612155 16.5851808 7.50981399 17.2305165 7.43972091 16.9661211 8.20367402 17.4407061 8.65546918 17.3152016 9.17998696 16.7432746 9.28109852 16.2094968 10.3133468 16.861701 10.6695957 17.4685745 9.73290058 17.8906661 9.58131101 18.4591776 8.71711695 19.0906761 8.72618349 17.8891446 10.9027032 17.581037 12.0644267 17.6998829 12.5478536 17.2372973 13.1102555 16.9842408 14.0158881 17.0775725 14.8577939 16.5046688 16.4626341 16.4840791 17.7151565 16.8882638 18.7020071 16.7824443 19.9487862 13.9433211 19.9417088 7.88421882 19.878466 7.70260507 19.3770348 6.94904245 19.1327044 6.33409521 18.1944405 6.21747209 17.2057886 6.58482256 16.6934871 6.11693697 16.1785098 6.08457001 15.631443 6.00239568 14.452728 5.38698511 13.4603724 4.97141135 13.3498051 3.97146036 12.4591683 3.74949669 11.8861526 2.90777409 11.5210411 2.65232272 11.1147502 1.9159845 10.9403713 1.11453669 10.1010515 1.28510579 9.33615048 1.2504629 7.81292528 1.6107915 7.13127494 0.912921722 5.89142924 1.37800232 5.13406644 2.71505308 4.27555162 2.72081646 1.60385232 3.58767753 1.4065884"></polyline>
        </g>
    </g>
</svg>